<svg width="10" height="12" viewBox="0 0 10 12" fill="none" xmlns="http://www.w3.org/2000/svg">
<path d="M4.99998 0.166626C2.54998 0.166626 0.333313 2.04496 0.333313 4.94996C0.333313 6.80496 1.76248 8.98663 4.61498 11.5008C4.83665 11.6933 5.16915 11.6933 5.39081 11.5008C8.23748 8.98663 9.66665 6.80496 9.66665 4.94996C9.66665 2.04496 7.44998 0.166626 4.99998 0.166626ZM4.99998 5.99996C4.35831 5.99996 3.83331 5.47496 3.83331 4.83329C3.83331 4.19163 4.35831 3.66663 4.99998 3.66663C5.64165 3.66663 6.16665 4.19163 6.16665 4.83329C6.16665 5.47496 5.64165 5.99996 4.99998 5.99996Z" fill="#BDBDBD"/>
</svg>
